<svg width="146" height="149" fill="none" xmlns="http://www.w3.org/2000/svg"><g id="label"><g id="text" opacity=".64" fill="#FFFCF6"><path id="Vector" d="m65.26 143.586-3.172-1.268c-1.444-.599-1.903-1.692-1.41-3.031.53-1.374 1.657-1.867 3.102-1.268l2.22.881 1.162-2.995.952.387-2.854 7.294Zm.422-3.876-1.902-.775c-1.093-.458-1.762-.141-2.115.705-.352.845-.035 1.515 1.057 1.973l1.903.775 1.058-2.678Z"/><path id="Vector_2" d="m55.817 139.358-3.136-1.938c-1.269-.775-1.586-1.938-.952-2.995.493-.775 1.269-1.269 2.185-.987-.705-.634-.494-1.268-.141-1.973.352-.705.846-1.41.74-2.079l.986.634c.071.423-.493 1.057-.775 1.762-.282.705-.493 1.339.353 1.903l2.184 1.339 1.762-2.819.881.528-4.087 6.625Zm-.846-4.722c-.81-.528-1.656-.74-2.255.212-.388.669-.353 1.339.458 1.867l2.22 1.374 1.41-2.325-1.833-1.128Z"/><path id="Vector_3" d="m46.901 133.332-4.017-3.595.599-.669 3.242 2.889 1.656-1.867-3.03-2.678.599-.67 3.03 2.749 1.797-2.009-3.277-2.925.6-.669 4.051 3.629-5.25 5.815Z"/><path id="Vector_4" d="m39.607 126.39-.846-1.127 3.7-5.956-6.695 2.044-.846-1.127 6.202-4.793.6.811-5.18 3.982 6.66-2.009.563.705-3.7 5.884 5.18-3.981.6.81-6.238 4.757Z"/><path id="Vector_5" d="m32.418 115.961-.493-.916 6.907-3.735.493.916-6.907 3.735Z"/><path id="Vector_6" d="M32.276 103.134c1.833-.705 3.242 0 3.876 1.832.705 1.903.247 3.348-1.726 4.053l-4.687 1.726-.352-.986 4.686-1.727c1.304-.458 1.727-1.515 1.234-2.784-.458-1.233-1.445-1.656-2.714-1.163l-4.686 1.727-.352-.987 4.721-1.691Z"/><path id="Vector_7" d="m26.251 99.926-.211-1.41 6.131-3.453L25.3 93.62l-.212-1.41 7.753-1.198.14.987-6.413.986 6.801 1.445.106.881-6.061 3.383 6.413-.987.141.987-7.717 1.233Z"/><path id="Vector_8" d="m25.125 81.25.528-3.63c.212-1.48 1.128-2.254 2.361-2.078.916.14 1.656.67 1.762 1.62.317-.88.986-.986 1.762-.916.775.071 1.62.212 2.184-.14l-.176 1.162c-.387.247-1.163-.035-1.973 0-.775 0-1.445.106-1.586 1.093l-.352 2.537 3.312.493-.14 1.057-7.683-1.198Zm4.017-2.678c.14-.987 0-1.832-1.128-1.973-.74-.106-1.374.247-1.515 1.163l-.388 2.572 2.713.388.318-2.15Z"/><path id="Vector_9" d="M27.978 67.402c.81-2.361 3.066-2.925 5.11-2.22 2.008.67 3.488 2.501 2.678 4.862s-3.066 2.925-5.11 2.22c-2.044-.634-3.488-2.501-2.678-4.862Zm6.907 2.396c.599-1.797-.705-3.101-2.185-3.594-1.48-.494-3.312-.282-3.911 1.515-.6 1.797.704 3.1 2.184 3.594 1.48.493 3.313.282 3.912-1.515Z"/><path id="Vector_10" d="M32.84 56.761c1.234-2.15 3.595-2.255 5.427-1.198 1.833 1.057 2.925 3.136 1.656 5.32-1.268 2.186-3.594 2.256-5.426 1.199-1.833-1.128-2.925-3.207-1.656-5.32Zm6.343 3.665c.952-1.656-.07-3.172-1.41-3.947-1.373-.81-3.17-.916-4.157.705-.952 1.656.07 3.171 1.41 3.947 1.374.81 3.17.916 4.157-.705Z"/><path id="Vector_11" d="m37.67 49.748.95-1.093 6.52 2.572-3.207-6.236.951-1.093 5.814 5.25-.67.74-4.862-4.369 3.207 6.167-.6.67-6.483-2.538 4.863 4.37-.67.74-5.814-5.18Z"/><path id="Vector_12" d="M51.694 39.67c-.775-.846-1.656-.74-2.502-.106-.67.529-1.233 1.304-.599 2.15.564.775 1.692.14 2.855-.388 1.162-.529 2.431-.951 3.347.317.987 1.34.106 2.855-1.022 3.7-1.41 1.057-3.1 1.269-4.264-.247l.811-.598c.775 1.057 2.044.845 2.96.14.775-.563 1.41-1.41.705-2.325-.635-.846-1.762-.282-2.925.246-1.163.529-2.396.987-3.242-.14-.986-1.27-.247-2.714.881-3.56 1.269-.986 2.713-1.092 3.77.247l-.775.564Z"/><path id="Vector_13" d="m58.317 40.657 1.057-.564.564 1.058-1.057.564-.564-1.058Z"/><path id="Vector_14" d="m65.894 29.98 2.75-.776c.669-.176 1.55-.422 2.043-.281.564.14 1.127.563 1.339 1.339.246.81-.035 1.515-.67 2.008.987-.07 1.692.493 1.938 1.445.318 1.092-.211 2.396-1.691 2.819l-3.63 1.022-2.079-7.576Zm2.855 6.378 2.537-.705c.88-.247 1.268-.916 1.057-1.762-.282-.987-1.163-1.022-2.008-.81l-2.291.67.705 2.607Zm-.952-3.418 2.009-.529c1.163-.317 1.48-.846 1.269-1.62-.282-1.058-1.058-.988-1.939-.74l-2.008.528.67 2.36Z"/><path id="Vector_15" d="m78.51 27.302 1.162-.105 3.77 7.505-1.162.106-1.058-2.255-3.277.317-.67 2.431-1.092.106 2.326-8.105Zm-.353 4.652 2.643-.247-1.657-3.489-.986 3.736Z"/><path id="Vector_16" d="m86.72 26.912 1.092.106 3.56 6.66.528-6.307.986.07-.634 7.823-1.127-.07-3.56-6.59-.528 6.237-.987-.07.67-7.859Z"/><path id="Vector_17" d="m97.855 28.324.987.281-1.022 3.77 4.863-2.748 1.268.353-4.017 2.184 2.079 5.392-1.269-.352-1.69-4.581-1.587.81-.74 2.643-.986-.282 2.114-7.47Z"/><path id="Vector_18" d="m113.219 34.031.881.529-1.762 2.89 3.524 2.114 1.762-2.89.881.529-4.088 6.695-.881-.529 1.868-3.065-3.524-2.115-1.868 3.066-.881-.529 4.088-6.695Z"/><path id="Vector_19" d="M125.199 42.348c1.832 1.691 1.445 3.982 0 5.567-1.445 1.586-3.665 2.185-5.532.529-1.868-1.656-1.445-3.982 0-5.568 1.444-1.585 3.664-2.184 5.532-.528Zm-4.933 5.426c1.409 1.269 3.136.6 4.158-.563 1.022-1.163 1.586-2.925.176-4.194-1.409-1.268-3.136-.599-4.158.564-1.022 1.163-1.586 2.925-.176 4.193Z"/><path id="Vector_20" d="m131.224 50.346-1.585-2.078.669-.53 3.841 4.97-.669.528-1.586-2.079-5.497 4.229-.634-.846 5.461-4.194Z"/><path id="Vector_21" d="m136.3 56.125 2.572 4.757-.775.423-2.079-3.841-2.185 1.198 1.939 3.56-.776.422-1.938-3.559-2.361 1.304 2.115 3.876-.776.423-2.607-4.793 6.871-3.77Z"/><path id="Vector_22" d="m140.633 64.97.352.987-6.554 2.326 1.375 3.911-.846.282-1.727-4.898 7.4-2.608Z"/></g><g id="icon" fill="#FCD043"><path id="Rectangle 93" d="M70.729 84.358a1.86 1.86 0 0 1-1.54-2.318 1.72 1.72 0 0 1 2.318-1.149l13.138 5.397-13.916-1.93Z"/><path id="Rectangle 95" d="M86.476 72.41a1.875 1.875 0 0 1 2.35-1.567 1.766 1.766 0 0 1 1.173 2.372L84.654 86.26l1.822-13.85Z"/><path id="Rectangle 97" d="M76.203 75.083c-.683-.898-.432-2.187.535-2.744.903-.52 2.064-.122 2.472.85l5.494 13.06-8.5-11.166Z"/><path id="Rectangle 99" d="M95.823 77.742c.893-.68 2.185-.413 2.754.569.53.917.143 2.084-.825 2.487l-13.048 5.424 11.119-8.48Z"/><path id="Rectangle 94" d="M98.541 88.181a1.859 1.859 0 0 1 1.54 2.318 1.72 1.72 0 0 1-2.318 1.15l-13.137-5.397L98.54 88.18Z"/><path id="Rectangle 96" d="M82.794 100.129a1.874 1.874 0 0 1-2.35 1.567 1.766 1.766 0 0 1-1.172-2.372l5.345-13.045-1.823 13.85Z"/><path id="Rectangle 98" d="M93.18 97.396c.685.899.433 2.187-.534 2.745-.903.52-2.064.121-2.472-.85L84.68 86.23l8.5 11.167Z"/><path id="Rectangle 100" d="M73.563 94.731c-.892.68-2.185.414-2.754-.569-.53-.916-.143-2.084.825-2.487l13.048-5.424-11.119 8.48Z"/></g></g></svg>