<svg aria-hidden="true" style="position: absolute; width: 0; height: 0; overflow: hidden;" version="1.1" xmlns="http://www.w3.org/2000/svg" xmlns:xlink="http://www.w3.org/1999/xlink">
<defs>
<symbol id="icon-button---default" viewBox="0 0 32 32">
<path fill="none" opacity="0.32" stroke="#fffcf6" style="stroke: var(--color1, #fffcf6)" stroke-linejoin="miter" stroke-linecap="butt" stroke-miterlimit="4" stroke-width="0.4571" d="M4.861 4.861l11.139-4.614 11.139 4.614 4.614 11.139-4.614 11.139-11.139 4.614-11.139-4.614-4.614-11.139 4.614-11.139z"></path>
<path fill="none" stroke="#fcd043" style="stroke: var(--color2, #fcd043)" stroke-linejoin="miter" stroke-linecap="butt" stroke-miterlimit="4" stroke-width="0.9143" d="M19.657 15.086c0 0-1.067 0.305-1.981 1.219s-1.676 2.438-1.676 2.438c0 0-0.762-1.524-1.676-2.438s-1.981-1.219-1.981-1.219"></path>
</symbol>
<symbol id="icon-arrow" viewBox="0 0 71 32">
<path stroke-linejoin="miter" stroke-linecap="butt" stroke-miterlimit="4" stroke-width="2.2857" d="M53.595 0.762c0 0 1.177 4.444 4.706 8.254s9.413 6.984 9.413 6.984-5.883 3.175-9.413 6.984c-3.53 3.81-4.706 8.254-4.706 8.254"></path>
<path stroke-linejoin="miter" stroke-linecap="butt" stroke-miterlimit="4" stroke-width="0.7619" d="M0.381 16.49v-0.98h65.51v0.98h-65.51z"></path>
</symbol>
<symbol id="icon-label" viewBox="0 0 31 32">
<path fill="#fffcf6" style="fill: var(--color1, #fffcf6)" opacity="0.64" d="M14.015 30.837l-0.681-0.272c-0.31-0.129-0.409-0.363-0.303-0.651 0.114-0.295 0.356-0.401 0.666-0.272l0.477 0.189 0.25-0.643 0.204 0.083-0.613 1.567zM14.106 30.005l-0.409-0.166c-0.235-0.098-0.378-0.030-0.454 0.151s-0.008 0.325 0.227 0.424l0.409 0.166 0.227-0.575z"></path>
<path fill="#fffcf6" style="fill: var(--color1, #fffcf6)" opacity="0.64" d="M11.987 29.929l-0.674-0.416c-0.272-0.166-0.341-0.416-0.204-0.643 0.106-0.166 0.272-0.273 0.469-0.212-0.151-0.136-0.106-0.272-0.030-0.424s0.182-0.303 0.159-0.447l0.212 0.136c0.015 0.091-0.106 0.227-0.166 0.378s-0.106 0.288 0.076 0.409l0.469 0.288 0.378-0.605 0.189 0.113-0.878 1.423zM11.806 28.915c-0.174-0.113-0.356-0.159-0.484 0.046-0.083 0.144-0.076 0.288 0.098 0.401l0.477 0.295 0.303-0.499-0.394-0.242z"></path>
<path fill="#fffcf6" style="fill: var(--color1, #fffcf6)" opacity="0.64" d="M10.073 28.635l-0.863-0.772 0.129-0.144 0.696 0.62 0.356-0.401-0.651-0.575 0.129-0.144 0.651 0.59 0.386-0.431-0.704-0.628 0.129-0.144 0.87 0.779-1.128 1.249z"></path>
<path fill="#fffcf6" style="fill: var(--color1, #fffcf6)" opacity="0.64" d="M8.506 27.144l-0.182-0.242 0.795-1.279-1.438 0.439-0.182-0.242 1.332-1.029 0.129 0.174-1.112 0.855 1.43-0.431 0.121 0.151-0.795 1.264 1.112-0.855 0.129 0.174-1.339 1.022z"></path>
<path fill="#fffcf6" style="fill: var(--color1, #fffcf6)" opacity="0.64" d="M6.962 24.904l-0.106-0.197 1.483-0.802 0.106 0.197-1.483 0.802z"></path>
<path fill="#fffcf6" style="fill: var(--color1, #fffcf6)" opacity="0.64" d="M6.932 22.15c0.394-0.151 0.696 0 0.832 0.393 0.151 0.409 0.053 0.719-0.371 0.87l-1.007 0.371-0.076-0.212 1.007-0.371c0.28-0.098 0.371-0.325 0.265-0.598-0.098-0.265-0.31-0.356-0.583-0.25l-1.007 0.371-0.076-0.212 1.014-0.363z"></path>
<path fill="#fffcf6" style="fill: var(--color1, #fffcf6)" opacity="0.64" d="M5.638 21.461l-0.045-0.303 1.317-0.742-1.476-0.31-0.045-0.303 1.665-0.257 0.030 0.212-1.377 0.212 1.461 0.31 0.023 0.189-1.302 0.727 1.377-0.212 0.030 0.212-1.657 0.265z"></path>
<path fill="#fffcf6" style="fill: var(--color1, #fffcf6)" opacity="0.64" d="M5.396 17.45l0.114-0.779c0.045-0.318 0.242-0.484 0.507-0.447 0.197 0.030 0.356 0.144 0.378 0.348 0.068-0.189 0.212-0.212 0.378-0.197s0.348 0.045 0.469-0.030l-0.038 0.25c-0.083 0.053-0.25-0.008-0.424 0-0.167 0-0.31 0.023-0.341 0.235l-0.076 0.545 0.711 0.106-0.030 0.227-1.65-0.257zM6.259 16.875c0.030-0.212 0-0.394-0.242-0.424-0.159-0.023-0.295 0.053-0.325 0.25l-0.083 0.552 0.583 0.083 0.068-0.462z"></path>
<path fill="#fffcf6" style="fill: var(--color1, #fffcf6)" opacity="0.64" d="M6.009 14.476c0.174-0.507 0.658-0.628 1.097-0.477 0.431 0.144 0.749 0.537 0.575 1.044s-0.658 0.628-1.097 0.477c-0.439-0.136-0.749-0.537-0.575-1.044zM7.492 14.99c0.129-0.386-0.151-0.666-0.469-0.772s-0.711-0.061-0.84 0.325c-0.129 0.386 0.151 0.666 0.469 0.772s0.711 0.061 0.84-0.325z"></path>
<path fill="#fffcf6" style="fill: var(--color1, #fffcf6)" opacity="0.64" d="M7.053 12.19c0.265-0.462 0.772-0.484 1.165-0.257s0.628 0.674 0.356 1.143c-0.272 0.469-0.772 0.484-1.165 0.257-0.394-0.242-0.628-0.689-0.356-1.143zM8.415 12.977c0.204-0.356-0.015-0.681-0.303-0.848-0.295-0.174-0.681-0.197-0.893 0.151-0.204 0.356 0.015 0.681 0.303 0.848 0.295 0.174 0.681 0.197 0.893-0.151z"></path>
<path fill="#fffcf6" style="fill: var(--color1, #fffcf6)" opacity="0.64" d="M8.090 10.684l0.204-0.235 1.4 0.552-0.689-1.339 0.204-0.235 1.249 1.128-0.144 0.159-1.044-0.938 0.689 1.324-0.129 0.144-1.392-0.545 1.044 0.938-0.144 0.159-1.249-1.112z"></path>
<path fill="#fffcf6" style="fill: var(--color1, #fffcf6)" opacity="0.64" d="M11.102 8.52c-0.166-0.182-0.356-0.159-0.537-0.023-0.144 0.114-0.265 0.28-0.129 0.462 0.121 0.166 0.363 0.030 0.613-0.083s0.522-0.204 0.719 0.068c0.212 0.288 0.023 0.613-0.219 0.795-0.303 0.227-0.666 0.272-0.916-0.053l0.174-0.129c0.166 0.227 0.439 0.182 0.636 0.030 0.166-0.121 0.303-0.303 0.151-0.499-0.136-0.182-0.378-0.061-0.628 0.053s-0.515 0.212-0.696-0.030c-0.212-0.272-0.053-0.583 0.189-0.764 0.272-0.212 0.583-0.235 0.81 0.053l-0.166 0.121z"></path>
<path fill="#fffcf6" style="fill: var(--color1, #fffcf6)" opacity="0.64" d="M12.524 8.732l0.227-0.121 0.121 0.227-0.227 0.121-0.121-0.227z"></path>
<path fill="#fffcf6" style="fill: var(--color1, #fffcf6)" opacity="0.64" d="M14.152 6.439l0.59-0.167c0.144-0.038 0.333-0.091 0.439-0.061 0.121 0.030 0.242 0.121 0.288 0.288 0.053 0.174-0.008 0.325-0.144 0.431 0.212-0.015 0.363 0.106 0.416 0.31 0.068 0.235-0.045 0.515-0.363 0.605l-0.78 0.219-0.447-1.627zM14.765 7.808l0.545-0.151c0.189-0.053 0.272-0.197 0.227-0.378-0.061-0.212-0.25-0.219-0.431-0.174l-0.492 0.144 0.151 0.56zM14.56 7.074l0.431-0.114c0.25-0.068 0.318-0.182 0.272-0.348-0.061-0.227-0.227-0.212-0.416-0.159l-0.431 0.114 0.144 0.507z"></path>
<path fill="#fffcf6" style="fill: var(--color1, #fffcf6)" opacity="0.64" d="M16.861 5.864l0.25-0.023 0.81 1.612-0.25 0.023-0.227-0.484-0.704 0.068-0.144 0.522-0.235 0.023 0.499-1.741zM16.785 6.863l0.568-0.053-0.356-0.749-0.212 0.802z"></path>
<path fill="#fffcf6" style="fill: var(--color1, #fffcf6)" opacity="0.64" d="M18.624 5.78l0.235 0.023 0.764 1.43 0.113-1.355 0.212 0.015-0.136 1.68-0.242-0.015-0.764-1.415-0.114 1.34-0.212-0.015 0.144-1.688z"></path>
<path fill="#fffcf6" style="fill: var(--color1, #fffcf6)" opacity="0.64" d="M21.016 6.083l0.212 0.061-0.219 0.81 1.044-0.59 0.272 0.076-0.863 0.469 0.447 1.158-0.273-0.076-0.363-0.984-0.341 0.174-0.159 0.568-0.212-0.061 0.454-1.604z"></path>
<path fill="#fffcf6" style="fill: var(--color1, #fffcf6)" opacity="0.64" d="M24.316 7.309l0.189 0.114-0.378 0.621 0.757 0.454 0.378-0.621 0.189 0.114-0.878 1.438-0.189-0.114 0.401-0.658-0.757-0.454-0.401 0.658-0.189-0.114 0.878-1.438z"></path>
<path fill="#fffcf6" style="fill: var(--color1, #fffcf6)" opacity="0.64" d="M26.888 9.095c0.393 0.363 0.31 0.855 0 1.196s-0.787 0.469-1.188 0.114c-0.401-0.356-0.31-0.855 0-1.196s0.787-0.469 1.188-0.114zM25.829 10.26c0.303 0.272 0.674 0.129 0.893-0.121s0.341-0.628 0.038-0.901c-0.303-0.272-0.674-0.129-0.893 0.121s-0.341 0.628-0.038 0.901z"></path>
<path fill="#fffcf6" style="fill: var(--color1, #fffcf6)" opacity="0.64" d="M28.182 10.813l-0.34-0.447 0.144-0.114 0.825 1.067-0.144 0.114-0.341-0.447-1.181 0.908-0.136-0.182 1.173-0.901z"></path>
<path fill="#fffcf6" style="fill: var(--color1, #fffcf6)" opacity="0.64" d="M29.272 12.054l0.552 1.022-0.166 0.091-0.447-0.825-0.469 0.257 0.416 0.764-0.167 0.091-0.416-0.764-0.507 0.28 0.454 0.832-0.167 0.091-0.56-1.029 1.476-0.81z"></path>
<path fill="#fffcf6" style="fill: var(--color1, #fffcf6)" opacity="0.64" d="M30.203 13.953l0.076 0.212-1.408 0.499 0.295 0.84-0.182 0.061-0.371-1.052 1.589-0.56z"></path>
<path fill="#fcd043" style="fill: var(--color2, #fcd043)" d="M15.19 18.117c-0.237-0.033-0.392-0.266-0.331-0.498 0.057-0.216 0.291-0.332 0.498-0.247l2.822 1.159-2.989-0.414z"></path>
<path fill="#fcd043" style="fill: var(--color2, #fcd043)" d="M18.572 15.551c0.032-0.242 0.269-0.4 0.505-0.337 0.22 0.059 0.338 0.299 0.252 0.509l-1.148 2.802 0.391-2.974z"></path>
<path fill="#fcd043" style="fill: var(--color2, #fcd043)" d="M16.366 16.125c-0.147-0.193-0.093-0.47 0.115-0.589 0.194-0.112 0.443-0.026 0.531 0.182l1.18 2.805-1.826-2.398z"></path>
<path fill="#fcd043" style="fill: var(--color2, #fcd043)" d="M20.579 16.696c0.192-0.146 0.469-0.089 0.591 0.122 0.114 0.197 0.031 0.448-0.177 0.534l-2.802 1.165 2.388-1.821z"></path>
<path fill="#fcd043" style="fill: var(--color2, #fcd043)" d="M21.163 18.938c0.237 0.033 0.392 0.266 0.331 0.498-0.057 0.216-0.291 0.332-0.498 0.247l-2.822-1.159 2.989 0.414z"></path>
<path fill="#fcd043" style="fill: var(--color2, #fcd043)" d="M17.781 21.504c-0.032 0.242-0.269 0.4-0.505 0.337-0.22-0.059-0.338-0.299-0.252-0.509l1.148-2.802-0.391 2.974z"></path>
<path fill="#fcd043" style="fill: var(--color2, #fcd043)" d="M20.012 20.917c0.147 0.193 0.093 0.47-0.115 0.589-0.194 0.112-0.443 0.026-0.531-0.183l-1.18-2.805 1.826 2.398z"></path>
<path fill="#fcd043" style="fill: var(--color2, #fcd043)" d="M15.799 20.345c-0.192 0.146-0.469 0.089-0.591-0.122-0.114-0.197-0.031-0.448 0.177-0.534l2.802-1.165-2.388 1.821z"></path>
</symbol>
<symbol id="icon-label2" viewBox="0 0 32 32">
<path fill="#1b3b36" style="fill: var(--color3, #1b3b36)" d="M8.989 1.589l0.839-0.36c0.386-0.16 0.679-0.040 0.839 0.307 0.16 0.36 0.040 0.667-0.346 0.828l-0.586 0.254 0.346 0.788-0.253 0.107-0.839-1.922zM9.641 2.39l0.506-0.214c0.293-0.12 0.359-0.307 0.266-0.534s-0.28-0.294-0.572-0.174l-0.506 0.214 0.306 0.708z"></path>
<path fill="#000" style="fill: var(--color4, #000)" opacity="0.2" d="M8.989 1.589l0.839-0.36c0.386-0.16 0.679-0.040 0.839 0.307 0.16 0.36 0.040 0.667-0.346 0.828l-0.586 0.254 0.346 0.788-0.253 0.107-0.839-1.922zM9.641 2.39l0.506-0.214c0.293-0.12 0.359-0.307 0.266-0.534s-0.28-0.294-0.572-0.174l-0.506 0.214 0.306 0.708z"></path>
<path fill="#1b3b36" style="fill: var(--color3, #1b3b36)" d="M12.836 0.28l0.972-0.147c0.386-0.053 0.666 0.12 0.705 0.454 0.040 0.254-0.040 0.467-0.28 0.574 0.253 0.013 0.319 0.174 0.373 0.374s0.067 0.427 0.213 0.547l-0.306 0.040c-0.093-0.067-0.080-0.307-0.146-0.494-0.053-0.2-0.133-0.36-0.399-0.32l-0.666 0.107 0.133 0.881-0.28 0.040-0.319-2.056zM13.821 1.108c0.253-0.040 0.466-0.133 0.426-0.441-0.027-0.2-0.16-0.334-0.426-0.294l-0.679 0.107 0.107 0.721 0.572-0.093z"></path>
<path fill="#000" style="fill: var(--color4, #000)" opacity="0.2" d="M12.836 0.28l0.972-0.147c0.386-0.053 0.666 0.12 0.705 0.454 0.040 0.254-0.040 0.467-0.28 0.574 0.253 0.013 0.319 0.174 0.373 0.374s0.067 0.427 0.213 0.547l-0.306 0.040c-0.093-0.067-0.080-0.307-0.146-0.494-0.053-0.2-0.133-0.36-0.399-0.32l-0.666 0.107 0.133 0.881-0.28 0.040-0.319-2.056zM13.821 1.108c0.253-0.040 0.466-0.133 0.426-0.441-0.027-0.2-0.16-0.334-0.426-0.294l-0.679 0.107 0.107 0.721 0.572-0.093z"></path>
<path fill="#1b3b36" style="fill: var(--color3, #1b3b36)" d="M16.989 0l1.438 0.147-0.027 0.24-1.158-0.12-0.067 0.667 1.078 0.107-0.027 0.24-1.078-0.107-0.080 0.721 1.172 0.107-0.027 0.24-1.438-0.16 0.213-2.083z"></path>
<path fill="#000" style="fill: var(--color4, #000)" opacity="0.2" d="M16.989 0l1.438 0.147-0.027 0.24-1.158-0.12-0.067 0.667 1.078 0.107-0.027 0.24-1.078-0.107-0.080 0.721 1.172 0.107-0.027 0.24-1.438-0.16 0.213-2.083z"></path>
<path fill="#1b3b36" style="fill: var(--color3, #1b3b36)" d="M20.916 0.721l0.359 0.147-0.027 1.882 1.264-1.388 0.359 0.147-0.772 1.949-0.266-0.12 0.639-1.629-1.251 1.388-0.226-0.093 0.027-1.869-0.639 1.629-0.24-0.093 0.772-1.949z"></path>
<path fill="#000" style="fill: var(--color4, #000)" opacity="0.2" d="M20.916 0.721l0.359 0.147-0.027 1.882 1.264-1.388 0.359 0.147-0.772 1.949-0.266-0.12 0.639-1.629-1.251 1.388-0.226-0.093 0.027-1.869-0.639 1.629-0.24-0.093 0.772-1.949z"></path>
<path fill="#1b3b36" style="fill: var(--color3, #1b3b36)" d="M25.095 2.83l0.226 0.16-1.211 1.709-0.226-0.16 1.211-1.709z"></path>
<path fill="#000" style="fill: var(--color4, #000)" opacity="0.2" d="M25.095 2.83l0.226 0.16-1.211 1.709-0.226-0.16 1.211-1.709z"></path>
<path fill="#1b3b36" style="fill: var(--color3, #1b3b36)" d="M27.438 6.781c-0.386 0.36-0.799 0.32-1.145-0.067-0.359-0.401-0.386-0.801 0.027-1.175l0.985-0.894 0.186 0.2-0.998 0.894c-0.28 0.254-0.28 0.547-0.040 0.814s0.519 0.267 0.785 0.027l0.985-0.894 0.186 0.2-0.972 0.894z"></path>
<path fill="#000" style="fill: var(--color4, #000)" opacity="0.2" d="M27.438 6.781c-0.386 0.36-0.799 0.32-1.145-0.067-0.359-0.401-0.386-0.801 0.027-1.175l0.985-0.894 0.186 0.2-0.998 0.894c-0.28 0.254-0.28 0.547-0.040 0.814s0.519 0.267 0.785 0.027l0.985-0.894 0.186 0.2-0.972 0.894z"></path>
<path fill="#1b3b36" style="fill: var(--color3, #1b3b36)" d="M29.941 8.090l0.173 0.347-1.291 1.362 1.864-0.174 0.173 0.347-1.877 0.921-0.12-0.24 1.571-0.761-1.85 0.174-0.107-0.214 1.278-1.348-1.571 0.761-0.12-0.24 1.877-0.934z"></path>
<path fill="#000" style="fill: var(--color4, #000)" opacity="0.2" d="M29.941 8.090l0.173 0.347-1.291 1.362 1.864-0.174 0.173 0.347-1.877 0.921-0.12-0.24 1.571-0.761-1.85 0.174-0.107-0.214 1.278-1.348-1.571 0.761-0.12-0.24 1.877-0.934z"></path>
<path fill="#1b3b36" style="fill: var(--color3, #1b3b36)" d="M32.004 15.393l-0.013 0.988c0 0.387-0.226 0.627-0.559 0.627-0.253 0-0.453-0.12-0.519-0.374-0.053 0.24-0.226 0.294-0.439 0.307-0.2 0.013-0.439 0-0.572 0.12v-0.307c0.080-0.080 0.306-0.027 0.519-0.067 0.2-0.027 0.373-0.067 0.386-0.347l0.013-0.681-0.892-0.013v-0.28l2.076 0.027zM31.033 16.234c0 0.267 0.053 0.481 0.359 0.494 0.2 0 0.359-0.107 0.359-0.374l0.013-0.694-0.732-0.013v0.587z"></path>
<path fill="#000" style="fill: var(--color4, #000)" opacity="0.2" d="M32.004 15.393l-0.013 0.988c0 0.387-0.226 0.627-0.559 0.627-0.253 0-0.453-0.12-0.519-0.374-0.053 0.24-0.226 0.294-0.439 0.307-0.2 0.013-0.439 0-0.572 0.12v-0.307c0.080-0.080 0.306-0.027 0.519-0.067 0.2-0.027 0.373-0.067 0.386-0.347l0.013-0.681-0.892-0.013v-0.28l2.076 0.027zM31.033 16.234c0 0.267 0.053 0.481 0.359 0.494 0.2 0 0.359-0.107 0.359-0.374l0.013-0.694-0.732-0.013v0.587z"></path>
<path fill="#1b3b36" style="fill: var(--color3, #1b3b36)" d="M31.445 20.426c-0.186 0.641-0.785 0.828-1.331 0.668s-0.958-0.628-0.785-1.268c0.186-0.641 0.785-0.828 1.331-0.667s0.958 0.628 0.785 1.268zM29.555 19.892c-0.133 0.494 0.226 0.814 0.626 0.934s0.892 0.027 1.025-0.467c0.133-0.494-0.226-0.814-0.626-0.935-0.399-0.107-0.878-0.027-1.025 0.467z"></path>
<path fill="#000" style="fill: var(--color4, #000)" opacity="0.2" d="M31.445 20.426c-0.186 0.641-0.785 0.828-1.331 0.668s-0.958-0.628-0.785-1.268c0.186-0.641 0.785-0.828 1.331-0.667s0.958 0.628 0.785 1.268zM29.555 19.892c-0.133 0.494 0.226 0.814 0.626 0.934s0.892 0.027 1.025-0.467c0.133-0.494-0.226-0.814-0.626-0.935-0.399-0.107-0.878-0.027-1.025 0.467z"></path>
<path fill="#1b3b36" style="fill: var(--color3, #1b3b36)" d="M29.648 24.497c-0.346 0.561-0.972 0.574-1.464 0.28-0.479-0.294-0.759-0.868-0.399-1.428 0.346-0.561 0.972-0.574 1.464-0.28 0.479 0.294 0.759 0.854 0.399 1.429zM27.984 23.469c-0.266 0.441-0.013 0.854 0.346 1.068 0.359 0.227 0.839 0.267 1.118-0.16 0.266-0.441 0.013-0.854-0.346-1.068-0.359-0.227-0.852-0.28-1.118 0.16z"></path>
<path fill="#000" style="fill: var(--color4, #000)" opacity="0.2" d="M29.648 24.497c-0.346 0.561-0.972 0.574-1.464 0.28-0.479-0.294-0.759-0.868-0.399-1.428 0.346-0.561 0.972-0.574 1.464-0.28 0.479 0.294 0.759 0.854 0.399 1.429zM27.984 23.469c-0.266 0.441-0.013 0.854 0.346 1.068 0.359 0.227 0.839 0.267 1.118-0.16 0.266-0.441 0.013-0.854-0.346-1.068-0.359-0.227-0.852-0.28-1.118 0.16z"></path>
<path fill="#1b3b36" style="fill: var(--color3, #1b3b36)" d="M27.438 27.301l-0.279 0.254-1.664-0.868 0.679 1.762-0.28 0.254-1.398-1.562 0.2-0.174 1.158 1.295-0.679-1.735 0.173-0.16 1.651 0.868-1.158-1.295 0.2-0.174 1.398 1.535z"></path>
<path fill="#000" style="fill: var(--color4, #000)" opacity="0.2" d="M27.438 27.301l-0.279 0.254-1.664-0.868 0.679 1.762-0.28 0.254-1.398-1.562 0.2-0.174 1.158 1.295-0.679-1.735 0.173-0.16 1.651 0.868-1.158-1.295 0.2-0.174 1.398 1.535z"></path>
<path fill="#1b3b36" style="fill: var(--color3, #1b3b36)" d="M22.287 30.131c0.16 0.254 0.399 0.28 0.652 0.16 0.213-0.107 0.386-0.28 0.266-0.534-0.106-0.227-0.426-0.12-0.772-0.040-0.333 0.080-0.679 0.12-0.865-0.254-0.2-0.401 0.12-0.747 0.466-0.921 0.426-0.2 0.878-0.173 1.105 0.28l-0.24 0.12c-0.16-0.32-0.479-0.32-0.772-0.187-0.226 0.107-0.439 0.307-0.306 0.574 0.12 0.254 0.453 0.16 0.785 0.080s0.679-0.147 0.839 0.2c0.186 0.387-0.067 0.721-0.413 0.881-0.386 0.187-0.759 0.147-0.985-0.254l0.24-0.107z"></path>
<path fill="#000" style="fill: var(--color4, #000)" opacity="0.2" d="M22.287 30.131c0.16 0.254 0.399 0.28 0.652 0.16 0.213-0.107 0.386-0.28 0.266-0.534-0.106-0.227-0.426-0.12-0.772-0.040-0.333 0.080-0.679 0.12-0.865-0.254-0.2-0.401 0.12-0.747 0.466-0.921 0.426-0.2 0.878-0.173 1.105 0.28l-0.24 0.12c-0.16-0.32-0.479-0.32-0.772-0.187-0.226 0.107-0.439 0.307-0.306 0.574 0.12 0.254 0.453 0.16 0.785 0.080s0.679-0.147 0.839 0.2c0.186 0.387-0.067 0.721-0.413 0.881-0.386 0.187-0.759 0.147-0.985-0.254l0.24-0.107z"></path>
<path fill="#1b3b36" style="fill: var(--color3, #1b3b36)" d="M19.491 29.877l-0.32 0.080-0.080-0.32 0.32-0.080 0.080 0.32z"></path>
<path fill="#000" style="fill: var(--color4, #000)" opacity="0.2" d="M19.491 29.877l-0.32 0.080-0.080-0.32 0.32-0.080 0.080 0.32z"></path>
<path fill="#1b3b36" style="fill: var(--color3, #1b3b36)" d="M14.167 32l-0.745-0.12c-0.186-0.027-0.426-0.067-0.532-0.16-0.12-0.107-0.2-0.267-0.173-0.467 0.040-0.227 0.173-0.36 0.386-0.414-0.24-0.093-0.359-0.307-0.306-0.561 0.053-0.307 0.319-0.561 0.719-0.494l0.998 0.16-0.346 2.056zM14.047 31.066l-0.546-0.093c-0.306-0.053-0.453 0.040-0.492 0.254-0.053 0.28 0.146 0.361 0.386 0.401l0.546 0.093 0.107-0.654zM14.193 30.118l-0.692-0.107c-0.24-0.040-0.413 0.080-0.453 0.307-0.040 0.267 0.16 0.374 0.386 0.414l0.626 0.107 0.133-0.721z"></path>
<path fill="#000" style="fill: var(--color4, #000)" opacity="0.2" d="M14.167 32l-0.745-0.12c-0.186-0.027-0.426-0.067-0.532-0.16-0.12-0.107-0.2-0.267-0.173-0.467 0.040-0.227 0.173-0.36 0.386-0.414-0.24-0.093-0.359-0.307-0.306-0.561 0.053-0.307 0.319-0.561 0.719-0.494l0.998 0.16-0.346 2.056zM14.047 31.066l-0.546-0.093c-0.306-0.053-0.453 0.040-0.492 0.254-0.053 0.28 0.146 0.361 0.386 0.401l0.546 0.093 0.107-0.654zM14.193 30.118l-0.692-0.107c-0.24-0.040-0.413 0.080-0.453 0.307-0.040 0.267 0.16 0.374 0.386 0.414l0.626 0.107 0.133-0.721z"></path>
<path fill="#1b3b36" style="fill: var(--color3, #1b3b36)" d="M9.601 30.745l-0.28-0.12 0.107-2.243 0.28 0.12-0.053 0.668 0.812 0.36 0.466-0.481 0.266 0.12-1.597 1.575zM10.293 29.704l-0.652-0.294-0.080 1.041 0.732-0.748z"></path>
<path fill="#000" style="fill: var(--color4, #000)" opacity="0.2" d="M9.601 30.745l-0.28-0.12 0.107-2.243 0.28 0.12-0.053 0.668 0.812 0.36 0.466-0.481 0.266 0.12-1.597 1.575zM10.293 29.704l-0.652-0.294-0.080 1.041 0.732-0.748z"></path>
<path fill="#1b3b36" style="fill: var(--color3, #1b3b36)" d="M6.553 29.023l-0.226-0.187 0.213-2.016-1.065 1.322-0.2-0.16 1.318-1.629 0.24 0.187-0.213 2.003 1.052-1.308 0.2 0.16-1.318 1.629z"></path>
<path fill="#000" style="fill: var(--color4, #000)" opacity="0.2" d="M6.553 29.023l-0.226-0.187 0.213-2.016-1.065 1.322-0.2-0.16 1.318-1.629 0.24 0.187-0.213 2.003 1.052-1.308 0.2 0.16-1.318 1.629z"></path>
<path fill="#1b3b36" style="fill: var(--color3, #1b3b36)" d="M3.465 26.033l-0.16-0.227 0.839-0.614-1.464-0.254-0.213-0.294 1.198 0.227 0.479-1.482 0.2 0.28-0.413 1.241 0.466 0.093 0.599-0.427 0.16 0.227-1.691 1.228z"></path>
<path fill="#000" style="fill: var(--color4, #000)" opacity="0.2" d="M3.465 26.033l-0.16-0.227 0.839-0.614-1.464-0.254-0.213-0.294 1.198 0.227 0.479-1.482 0.2 0.28-0.413 1.241 0.466 0.093 0.599-0.427 0.16 0.227-1.691 1.228z"></path>
<path fill="#1b3b36" style="fill: var(--color3, #1b3b36)" d="M0.417 19.785l-0.053-0.28 0.879-0.16-0.2-1.081-0.879 0.16-0.053-0.28 2.050-0.387 0.053 0.28-0.945 0.173 0.2 1.081 0.945-0.174 0.053 0.28-2.050 0.387z"></path>
<path fill="#000" style="fill: var(--color4, #000)" opacity="0.2" d="M0.417 19.785l-0.053-0.28 0.879-0.16-0.2-1.081-0.879 0.16-0.053-0.28 2.050-0.387 0.053 0.28-0.945 0.173 0.2 1.081 0.945-0.174 0.053 0.28-2.050 0.387z"></path>
<path fill="#1b3b36" style="fill: var(--color3, #1b3b36)" d="M0.004 14.592c0.053-0.668 0.612-0.948 1.185-0.908s1.065 0.427 0.998 1.095c-0.053 0.668-0.612 0.948-1.185 0.908-0.559-0.040-1.052-0.427-0.998-1.095zM1.961 14.765c0.040-0.507-0.373-0.761-0.799-0.801s-0.879 0.133-0.918 0.641c-0.040 0.507 0.373 0.761 0.799 0.801 0.413 0.053 0.865-0.12 0.918-0.641z"></path>
<path fill="#000" style="fill: var(--color4, #000)" opacity="0.2" d="M0.004 14.592c0.053-0.668 0.612-0.948 1.185-0.908s1.065 0.427 0.998 1.095c-0.053 0.668-0.612 0.948-1.185 0.908-0.559-0.040-1.052-0.427-0.998-1.095zM1.961 14.765c0.040-0.507-0.373-0.761-0.799-0.801s-0.879 0.133-0.918 0.641c-0.040 0.507 0.373 0.761 0.799 0.801 0.413 0.053 0.865-0.12 0.918-0.641z"></path>
<path fill="#1b3b36" style="fill: var(--color3, #1b3b36)" d="M1.122 10.774l-0.24 0.654-0.226-0.080 0.572-1.575 0.226 0.080-0.24 0.654 1.744 0.641-0.093 0.267-1.744-0.641z"></path>
<path fill="#000" style="fill: var(--color4, #000)" opacity="0.2" d="M1.122 10.774l-0.24 0.654-0.226-0.080 0.572-1.575 0.226 0.080-0.24 0.654 1.744 0.641-0.093 0.267-1.744-0.641z"></path>
<path fill="#1b3b36" style="fill: var(--color3, #1b3b36)" d="M2.333 7.663l0.799-1.202 0.2 0.133-0.652 0.975 0.546 0.374 0.599-0.908 0.2 0.133-0.599 0.908 0.599 0.4 0.652-0.975 0.2 0.133-0.812 1.215-1.73-1.188z"></path>
<path fill="#000" style="fill: var(--color4, #000)" opacity="0.2" d="M2.333 7.663l0.799-1.202 0.2 0.133-0.652 0.975 0.546 0.374 0.599-0.908 0.2 0.133-0.599 0.908 0.599 0.4 0.652-0.975 0.2 0.133-0.812 1.215-1.73-1.188z"></path>
<path fill="#1b3b36" style="fill: var(--color3, #1b3b36)" d="M4.77 4.579l0.2-0.187 1.251 1.375 0.812-0.748 0.16 0.174-1.025 0.934-1.398-1.549z"></path>
<path fill="#000" style="fill: var(--color4, #000)" opacity="0.2" d="M4.77 4.579l0.2-0.187 1.251 1.375 0.812-0.748 0.16 0.174-1.025 0.934-1.398-1.549z"></path>
</symbol>
<symbol id="icon-Star-8" viewBox="0 0 32 32">
<path fill="#fcd043" style="fill: var(--color2, #fcd043)" d="M16 0l1.236 12.196 8.168-9.14-6.169 10.593 11.981-2.593-11.217 4.944 11.217 4.944-11.981-2.593 6.168 10.593-8.169-9.14-1.236 12.196-1.236-12.196-8.168 9.14 6.168-10.593-11.981 2.593 11.217-4.944-11.217-4.944 11.981 2.593-6.168-10.593 8.168 9.14 1.236-12.196z"></path>
</symbol>
<symbol id="icon-Vector-3" viewBox="0 0 52 32">
<path fill="none" stroke="#fcd043" style="stroke: var(--color2, #fcd043)" stroke-linejoin="miter" stroke-linecap="butt" stroke-miterlimit="4" stroke-width="4" d="M50 2c0 0-7 2-13 8s-11 16-11 16c0 0-5-10-11-16s-13-8-13-8"></path>
</symbol>
</defs>
</svg>
